<?xml version="1.0" encoding="UTF-8"?>
<!DOCTYPE svg PUBLIC "-//W3C//DTD SVG 1.1//EN" "http://www.w3.org/Graphics/SVG/1.1/DTD/svg11.dtd">
<svg xmlns="http://www.w3.org/2000/svg" version="1.1" width="32px" height="32px" style="shape-rendering:geometricPrecision; text-rendering:geometricPrecision; image-rendering:optimizeQuality; fill-rule:evenodd; clip-rule:evenodd" xmlns:xlink="http://www.w3.org/1999/xlink">
<g><path style="opacity:1" fill="#4aa84b" d="M 9.5,-0.5 C 13.5,-0.5 17.5,-0.5 21.5,-0.5C 25.8333,1.83333 29.1667,5.16667 31.5,9.5C 31.5,13.5 31.5,17.5 31.5,21.5C 29.1667,25.8333 25.8333,29.1667 21.5,31.5C 17.5,31.5 13.5,31.5 9.5,31.5C 5.16667,29.1667 1.83333,25.8333 -0.5,21.5C -0.5,17.5 -0.5,13.5 -0.5,9.5C 1.83333,5.16667 5.16667,1.83333 9.5,-0.5 Z"/></g>
<g><path style="opacity:1" fill="#f4f7f3" d="M 13.5,6.5 C 14.8333,6.5 16.1667,6.5 17.5,6.5C 17.5,8.83333 17.5,11.1667 17.5,13.5C 19.8333,13.5 22.1667,13.5 24.5,13.5C 24.5,14.8333 24.5,16.1667 24.5,17.5C 22.1667,17.5 19.8333,17.5 17.5,17.5C 17.5,19.8333 17.5,22.1667 17.5,24.5C 16.1667,24.5 14.8333,24.5 13.5,24.5C 13.5,22.1667 13.5,19.8333 13.5,17.5C 11.1667,17.5 8.83333,17.5 6.5,17.5C 6.5,16.1667 6.5,14.8333 6.5,13.5C 8.83333,13.5 11.1667,13.5 13.5,13.5C 13.5,11.1667 13.5,8.83333 13.5,6.5 Z"/></g>
</svg>
