<?xml version="1.0" encoding="UTF-8"?>
<!DOCTYPE svg PUBLIC "-//W3C//DTD SVG 1.1//EN" "http://www.w3.org/Graphics/SVG/1.1/DTD/svg11.dtd">
<svg xmlns="http://www.w3.org/2000/svg" version="1.1" width="32px" height="32px" style="shape-rendering:geometricPrecision; text-rendering:geometricPrecision; image-rendering:optimizeQuality; fill-rule:evenodd; clip-rule:evenodd" xmlns:xlink="http://www.w3.org/1999/xlink">
<g><path style="opacity:1" fill="#3eaabe" d="M 25.5,13.5 C 25.5,13.8333 25.5,14.1667 25.5,14.5C 23.6122,12.0122 22.9455,9.01215 23.5,5.5C 19.1667,5.5 14.8333,5.5 10.5,5.5C 11.0356,8.69805 10.369,11.3647 8.5,13.5C 8.5,9.83333 8.5,6.16667 8.5,2.5C 11.4877,2.56117 14.3211,1.89451 17,0.5C 19.6789,1.89451 22.5123,2.56117 25.5,2.5C 25.5,6.16667 25.5,9.83333 25.5,13.5 Z"/></g>
<g><path style="opacity:1" fill="#d6d8d4" d="M 25.5,14.5 C 21.3988,15.4815 17.3988,16.9815 13.5,19C 17.5796,19.4207 21.4129,18.5874 25,16.5C 25.4696,17.5768 25.3029,18.5768 24.5,19.5C 23.5489,20.9187 23.2155,22.5853 23.5,24.5C 22.1667,24.5 20.8333,24.5 19.5,24.5C 19.5,23.5 19.5,22.5 19.5,21.5C 16.5,21.5 13.5,21.5 10.5,21.5C 10.8685,18.4669 10.2018,15.8002 8.5,13.5C 10.369,11.3647 11.0356,8.69805 10.5,5.5C 14.8333,5.5 19.1667,5.5 23.5,5.5C 22.9455,9.01215 23.6122,12.0122 25.5,14.5 Z"/></g>
<g><path style="opacity:1" fill="#f5b530" d="M 25.5,13.5 C 26.8333,13.5 28.1667,13.5 29.5,13.5C 29.0523,16.1718 27.719,18.1718 25.5,19.5C 25.1667,19.5 24.8333,19.5 24.5,19.5C 25.3029,18.5768 25.4696,17.5768 25,16.5C 21.4129,18.5874 17.5796,19.4207 13.5,19C 17.3988,16.9815 21.3988,15.4815 25.5,14.5C 25.5,14.1667 25.5,13.8333 25.5,13.5 Z"/></g>
<g><path style="opacity:0.973" fill="#0c93b6" d="M 24.5,19.5 C 24.8333,19.5 25.1667,19.5 25.5,19.5C 25.5,21.8333 25.5,24.1667 25.5,26.5C 23.5,26.5 21.5,26.5 19.5,26.5C 19.5,25.8333 19.5,25.1667 19.5,24.5C 20.8333,24.5 22.1667,24.5 23.5,24.5C 23.2155,22.5853 23.5489,20.9187 24.5,19.5 Z"/></g>
<g><path style="opacity:0.923" fill="#f6b629" d="M 8.5,13.5 C 10.2018,15.8002 10.8685,18.4669 10.5,21.5C 13.5,21.5 16.5,21.5 19.5,21.5C 19.5,22.5 19.5,23.5 19.5,24.5C 19.5,25.1667 19.5,25.8333 19.5,26.5C 19.5,27.8333 19.5,29.1667 19.5,30.5C 13.5,30.5 7.5,30.5 1.5,30.5C 1.5,24.8333 1.5,19.1667 1.5,13.5C 3.83333,13.5 6.16667,13.5 8.5,13.5 Z"/></g>
</svg>
