<?xml version="1.0" encoding="UTF-8"?>
<!DOCTYPE svg PUBLIC "-//W3C//DTD SVG 1.1//EN" "http://www.w3.org/Graphics/SVG/1.1/DTD/svg11.dtd">
<svg xmlns="http://www.w3.org/2000/svg" version="1.1" width="32px" height="32px" style="shape-rendering:geometricPrecision; text-rendering:geometricPrecision; image-rendering:optimizeQuality; fill-rule:evenodd; clip-rule:evenodd" xmlns:xlink="http://www.w3.org/1999/xlink">
<g><path style="opacity:0.995" fill="#575a61" d="M 9.5,-0.5 C 13.5,-0.5 17.5,-0.5 21.5,-0.5C 22.1098,0.391047 22.4431,1.39105 22.5,2.5C 21.5,2.5 20.5,2.5 19.5,2.5C 16.8333,1.16667 14.1667,1.16667 11.5,2.5C 10.5,3.83333 9.5,3.83333 8.5,2.5C 8.55688,1.39105 8.89022,0.391047 9.5,-0.5 Z"/></g>
<g><path style="opacity:0.9" fill="#7f828b" d="M 8.5,2.5 C 9.5,3.83333 10.5,3.83333 11.5,2.5C 12.8333,2.5 14.1667,2.5 15.5,2.5C 15.5,4.5 15.5,6.5 15.5,8.5C 11.1667,8.5 6.83333,8.5 2.5,8.5C 0.912167,7.36474 0.578833,6.03141 1.5,4.5C 3.50976,2.82869 5.8431,2.16202 8.5,2.5 Z"/></g>
<g><path style="opacity:1" fill="#787c85" d="M 15.5,2.5 C 16.8333,2.5 18.1667,2.5 19.5,2.5C 20.5,2.5 21.5,2.5 22.5,2.5C 26.0053,1.89091 28.672,3.05758 30.5,6C 29.9341,6.9947 29.2674,7.82803 28.5,8.5C 24.2648,9.43596 19.9315,9.76929 15.5,9.5C 15.5,9.16667 15.5,8.83333 15.5,8.5C 15.5,6.5 15.5,4.5 15.5,2.5 Z"/></g>
<g><path style="opacity:0.953" fill="#c2c8d6" d="M 2.5,8.5 C 6.83333,8.5 11.1667,8.5 15.5,8.5C 15.5,8.83333 15.5,9.16667 15.5,9.5C 15.5,9.83333 15.5,10.1667 15.5,10.5C 14.196,16.266 14.196,21.9327 15.5,27.5C 15.5,28.8333 15.5,30.1667 15.5,31.5C 12.1667,31.5 8.83333,31.5 5.5,31.5C 4.22611,23.8936 3.22611,16.227 2.5,8.5 Z"/></g>
<g><path style="opacity:0.999" fill="#b7becb" d="M 28.5,8.5 C 27.7739,16.227 26.7739,23.8936 25.5,31.5C 22.1667,31.5 18.8333,31.5 15.5,31.5C 15.5,30.1667 15.5,28.8333 15.5,27.5C 16.8333,21.8333 16.8333,16.1667 15.5,10.5C 15.5,10.1667 15.5,9.83333 15.5,9.5C 19.9315,9.76929 24.2648,9.43596 28.5,8.5 Z"/></g>
<g><path style="opacity:1" fill="#a5abb7" d="M 9.5,10.5 C 10.1174,10.6107 10.6174,10.944 11,11.5C 11.8295,16.8643 11.6628,22.1977 10.5,27.5C 9.50457,21.8722 9.17124,16.2055 9.5,10.5 Z"/></g>
<g><path style="opacity:1" fill="#9fa5b1" d="M 15.5,10.5 C 16.8333,16.1667 16.8333,21.8333 15.5,27.5C 14.196,21.9327 14.196,16.266 15.5,10.5 Z"/></g>
<g><path style="opacity:1" fill="#9ca1ad" d="M 20.5,10.5 C 21.8157,16.0129 21.8157,21.6796 20.5,27.5C 19.2149,21.7799 19.2149,16.1133 20.5,10.5 Z"/></g>
</svg>
