<?xml version="1.0" encoding="UTF-8"?>
<!DOCTYPE svg PUBLIC "-//W3C//DTD SVG 1.1//EN" "http://www.w3.org/Graphics/SVG/1.1/DTD/svg11.dtd">
<svg xmlns="http://www.w3.org/2000/svg" version="1.1" width="32px" height="32px" style="shape-rendering:geometricPrecision; text-rendering:geometricPrecision; image-rendering:optimizeQuality; fill-rule:evenodd; clip-rule:evenodd" xmlns:xlink="http://www.w3.org/1999/xlink">
<g><path style="opacity:0.853" fill="#ea5542" d="M 18.5,-0.5 C 20.1667,-0.5 21.8333,-0.5 23.5,-0.5C 24.6854,0.856588 25.6854,2.35659 26.5,4C 26.1918,5.45947 25.5251,6.62614 24.5,7.5C 22.4687,5.47761 20.1354,3.81094 17.5,2.5C 17.5569,1.39105 17.8902,0.391047 18.5,-0.5 Z"/></g>
<g><path style="opacity:0.962" fill="#d0ccd6" d="M 17.5,2.5 C 20.1354,3.81094 22.4687,5.47761 24.5,7.5C 24.1667,8.5 23.5,9.16667 22.5,9.5C 21.609,8.89022 20.609,8.55688 19.5,8.5C 19.1667,7.5 18.5,6.83333 17.5,6.5C 16.8333,6.16667 16.1667,5.83333 15.5,5.5C 15.427,3.97306 16.0937,2.97306 17.5,2.5 Z"/></g>
<g><path style="opacity:0.886" fill="#f99a43" d="M 15.5,5.5 C 16.1667,5.83333 16.8333,6.16667 17.5,6.5C 14.4737,11.1843 11.4737,15.8509 8.5,20.5C 7.60895,19.8902 6.60895,19.5569 5.5,19.5C 8.34528,14.4727 11.6786,9.80605 15.5,5.5 Z"/></g>
<g><path style="opacity:0.998" fill="#fab85f" d="M 17.5,6.5 C 18.5,6.83333 19.1667,7.5 19.5,8.5C 16.5263,13.1491 13.5263,17.8157 10.5,22.5C 9.5,22.1667 8.83333,21.5 8.5,20.5C 11.4737,15.8509 14.4737,11.1843 17.5,6.5 Z"/></g>
<g><path style="opacity:0.869" fill="#fed05d" d="M 19.5,8.5 C 20.609,8.55688 21.609,8.89022 22.5,9.5C 20.0094,14.4781 17.0094,19.1447 13.5,23.5C 12.391,23.4431 11.391,23.1098 10.5,22.5C 13.5263,17.8157 16.5263,13.1491 19.5,8.5 Z"/></g>
<g><path style="opacity:0.949" fill="#dcac80" d="M 5.5,19.5 C 6.60895,19.5569 7.60895,19.8902 8.5,20.5C 8.83333,21.5 9.5,22.1667 10.5,22.5C 11.391,23.1098 12.391,23.4431 13.5,23.5C 12.0158,25.0737 10.3492,26.407 8.5,27.5C 8.16667,27.5 7.83333,27.5 7.5,27.5C 6.20498,26.5116 4.87165,25.5116 3.5,24.5C 4.02412,22.6943 4.69079,21.0276 5.5,19.5 Z"/></g>
<g><path style="opacity:1" fill="#4e5f6a" d="M 3.5,24.5 C 4.87165,25.5116 6.20498,26.5116 7.5,27.5C 6.39105,27.5569 5.39105,27.8902 4.5,28.5C 3.56552,27.4324 3.23219,26.099 3.5,24.5 Z"/></g>
<g><path style="opacity:0.52" fill="#d0d7e5" d="M 7.5,27.5 C 7.83333,27.5 8.16667,27.5 8.5,27.5C 14.8682,27.1703 21.2015,27.5037 27.5,28.5C 27.1373,29.1835 26.8039,29.8501 26.5,30.5C 20.9983,29.8554 15.4983,29.1887 10,28.5C 8.1852,29.2444 6.35187,29.9111 4.5,30.5C 4.5,29.8333 4.5,29.1667 4.5,28.5C 5.39105,27.8902 6.39105,27.5569 7.5,27.5 Z"/></g>
<g><path style="opacity:0.967" fill="#d0d3e2" d="M 26.5,30.5 C 27.1667,30.5 27.5,30.8333 27.5,31.5C 19.5,31.5 11.5,31.5 3.5,31.5C 3.5,30.8333 3.83333,30.5 4.5,30.5C 6.35187,29.9111 8.1852,29.2444 10,28.5C 15.4983,29.1887 20.9983,29.8554 26.5,30.5 Z"/></g>
</svg>
