<?xml version="1.0" encoding="UTF-8"?>
<!DOCTYPE svg PUBLIC "-//W3C//DTD SVG 1.1//EN" "http://www.w3.org/Graphics/SVG/1.1/DTD/svg11.dtd">
<svg xmlns="http://www.w3.org/2000/svg" version="1.1" width="32px" height="32px" style="shape-rendering:geometricPrecision; text-rendering:geometricPrecision; image-rendering:optimizeQuality; fill-rule:evenodd; clip-rule:evenodd" xmlns:xlink="http://www.w3.org/1999/xlink">
<g><path style="opacity:0.936" fill="#252122" d="M 5.5,2.5 C 10.1785,2.33418 14.8452,2.50085 19.5,3C 21.3333,4.83333 23.1667,6.66667 25,8.5C 25.4996,15.1583 25.6663,21.825 25.5,28.5C 18.8333,28.5 12.1667,28.5 5.5,28.5C 5.5,27.5 5.5,26.5 5.5,25.5C 4.5,25.5 3.5,25.5 2.5,25.5C 2.5,20.5 2.5,15.5 2.5,10.5C 3.5,10.5 4.5,10.5 5.5,10.5C 5.5,7.83333 5.5,5.16667 5.5,2.5 Z"/></g>
<g><path style="opacity:1" fill="#8d8b8c" d="M 17.5,4.5 C 14.1667,4.5 10.8333,4.5 7.5,4.5C 7.5,6.83333 7.5,9.16667 7.5,11.5C 7.16667,11.5 6.83333,11.5 6.5,11.5C 6.5,8.83333 6.5,6.16667 6.5,3.5C 10.3714,3.18503 14.0381,3.51836 17.5,4.5 Z"/></g>
<g><path style="opacity:1" fill="#f9f9f9" d="M 17.5,4.5 C 17.5,6.5 17.5,8.5 17.5,10.5C 19.5,10.5 21.5,10.5 23.5,10.5C 24.4614,12.2646 24.7947,14.2646 24.5,16.5C 23.5206,19.6248 23.1872,22.9581 23.5,26.5C 17.7291,27.1128 12.3958,26.4461 7.5,24.5C 10.5,24.5 13.5,24.5 16.5,24.5C 16.5,20.1667 16.5,15.8333 16.5,11.5C 13.5,11.5 10.5,11.5 7.5,11.5C 7.5,9.16667 7.5,6.83333 7.5,4.5C 10.8333,4.5 14.1667,4.5 17.5,4.5 Z"/></g>
<g><path style="opacity:1" fill="#707174" d="M 17.5,4.5 C 19.8333,6.16667 21.8333,8.16667 23.5,10.5C 21.5,10.5 19.5,10.5 17.5,10.5C 17.5,8.5 17.5,6.5 17.5,4.5 Z"/></g>
<g><path style="opacity:1" fill="#28603e" d="M 6.5,11.5 C 6.5,11.8333 6.5,12.1667 6.5,12.5C 5.21317,13.8714 4.5465,15.7047 4.5,18C 4.5465,20.2953 5.21317,22.1286 6.5,23.5C 6.5,23.8333 6.5,24.1667 6.5,24.5C 5.5,24.5 4.5,24.5 3.5,24.5C 3.5,20.1667 3.5,15.8333 3.5,11.5C 4.5,11.5 5.5,11.5 6.5,11.5 Z"/></g>
<g><path style="opacity:1" fill="#37aa64" d="M 6.5,12.5 C 9.5,12.5 12.5,12.5 15.5,12.5C 15.5,16.1667 15.5,19.8333 15.5,23.5C 12.5,23.5 9.5,23.5 6.5,23.5C 5.21317,22.1286 4.5465,20.2953 4.5,18C 4.5465,15.7047 5.21317,13.8714 6.5,12.5 Z"/></g>
<g><path style="opacity:1" fill="#a0d3b4" d="M 6.5,12.5 C 6.5,12.1667 6.5,11.8333 6.5,11.5C 6.83333,11.5 7.16667,11.5 7.5,11.5C 10.5,11.5 13.5,11.5 16.5,11.5C 16.5,15.8333 16.5,20.1667 16.5,24.5C 13.5,24.5 10.5,24.5 7.5,24.5C 7.16667,24.5 6.83333,24.5 6.5,24.5C 6.5,24.1667 6.5,23.8333 6.5,23.5C 9.5,23.5 12.5,23.5 15.5,23.5C 15.5,19.8333 15.5,16.1667 15.5,12.5C 12.5,12.5 9.5,12.5 6.5,12.5 Z"/></g>
<g><path style="opacity:1" fill="#eaf6ee" d="M 6.5,15.5 C 7.79266,14.3552 8.95933,14.6885 10,16.5C 13.7744,13.803 14.2744,14.303 11.5,18C 14.2744,21.697 13.7744,22.197 10,19.5C 6.22561,22.197 5.72561,21.697 8.5,18C 8.36126,16.699 7.69459,15.8656 6.5,15.5 Z"/></g>
<g><path style="opacity:1" fill="#939192" d="M 24.5,16.5 C 24.5,20.1667 24.5,23.8333 24.5,27.5C 18.5,27.5 12.5,27.5 6.5,27.5C 6.5,26.5 6.5,25.5 6.5,24.5C 6.83333,24.5 7.16667,24.5 7.5,24.5C 12.3958,26.4461 17.7291,27.1128 23.5,26.5C 23.1872,22.9581 23.5206,19.6248 24.5,16.5 Z"/></g>
</svg>
