<?xml version="1.0" encoding="UTF-8"?>
<!DOCTYPE svg PUBLIC "-//W3C//DTD SVG 1.1//EN" "http://www.w3.org/Graphics/SVG/1.1/DTD/svg11.dtd">
<svg xmlns="http://www.w3.org/2000/svg" version="1.1" width="32px" height="32px" style="shape-rendering:geometricPrecision; text-rendering:geometricPrecision; image-rendering:optimizeQuality; fill-rule:evenodd; clip-rule:evenodd" xmlns:xlink="http://www.w3.org/1999/xlink">
<g><path style="opacity:0.998" fill="#d5eafc" d="M 2.5,-0.5 C 3.5,-0.5 4.5,-0.5 5.5,-0.5C 5.5,0.5 5.5,1.5 5.5,2.5C 4.43311,4.87946 5.43311,5.87946 8.5,5.5C 7.5,6.16667 6.5,6.83333 5.5,7.5C 11.2645,9.14743 17.2645,10.1474 23.5,10.5C 21.1667,10.5 18.8333,10.5 16.5,10.5C 16.5,12.1667 16.5,13.8333 16.5,15.5C 12.8333,15.5 9.16667,15.5 5.5,15.5C 5.66018,13.8008 5.49351,12.1341 5,10.5C 4.33333,13.1667 4.33333,15.8333 5,18.5C 6.69767,17.267 8.69767,16.6004 11,16.5C 15.1412,17.4475 19.3079,18.1142 23.5,18.5C 17.6807,19.3276 11.6807,19.8276 5.5,20C 6.79323,20.49 8.12656,20.6567 9.5,20.5C 9.5,21.8333 9.5,23.1667 9.5,24.5C 7.90097,24.2322 6.56764,24.5655 5.5,25.5C 4.16667,26.5 4.16667,27.5 5.5,28.5C 5.5,29.5 5.5,30.5 5.5,31.5C 4.5,31.5 3.5,31.5 2.5,31.5C 2.5,20.8333 2.5,10.1667 2.5,-0.5 Z"/></g>
<g><path style="opacity:0.909" fill="#e5f3fd" d="M 5.5,-0.5 C 12.5,-0.5 19.5,-0.5 26.5,-0.5C 26.5,6.83333 26.5,14.1667 26.5,21.5C 24.4513,20.3586 22.4513,20.3586 20.5,21.5C 17.3752,20.5206 14.0419,20.1872 10.5,20.5C 10.5,21.8333 10.5,23.1667 10.5,24.5C 12.8333,24.5 15.1667,24.5 17.5,24.5C 17.1496,27.4534 18.1496,29.7867 20.5,31.5C 15.5,31.5 10.5,31.5 5.5,31.5C 5.5,30.5 5.5,29.5 5.5,28.5C 8.16667,28.5 10.8333,28.5 13.5,28.5C 13.5,27.5 13.5,26.5 13.5,25.5C 10.8333,25.5 8.16667,25.5 5.5,25.5C 6.56764,24.5655 7.90097,24.2322 9.5,24.5C 9.5,23.1667 9.5,21.8333 9.5,20.5C 8.12656,20.6567 6.79323,20.49 5.5,20C 11.6807,19.8276 17.6807,19.3276 23.5,18.5C 23.5,15.8333 23.5,13.1667 23.5,10.5C 17.2645,10.1474 11.2645,9.14743 5.5,7.5C 6.93906,8.50924 8.2724,8.17591 9.5,6.5C 9.37642,5.89333 9.04309,5.55999 8.5,5.5C 8.5,4.5 8.5,3.5 8.5,2.5C 7.5,2.5 6.5,2.5 5.5,2.5C 5.5,1.5 5.5,0.5 5.5,-0.5 Z"/></g>
<g><path style="opacity:1" fill="#2b9afc" d="M 13.5,2.5 C 16.8984,2.17964 20.2317,2.51298 23.5,3.5C 21.8333,3.83333 20.1667,4.16667 18.5,4.5C 16.3603,4.44392 14.6936,3.77725 13.5,2.5 Z"/></g>
<g><path style="opacity:1" fill="#86c675" d="M 5.5,2.5 C 6.5,2.5 7.5,2.5 8.5,2.5C 8.5,3.5 8.5,4.5 8.5,5.5C 5.43311,5.87946 4.43311,4.87946 5.5,2.5 Z"/></g>
<g><path style="opacity:1" fill="#75be5e" d="M 8.5,5.5 C 9.04309,5.55999 9.37642,5.89333 9.5,6.5C 8.2724,8.17591 6.93906,8.50924 5.5,7.5C 6.5,6.83333 7.5,6.16667 8.5,5.5 Z"/></g>
<g><path style="opacity:1" fill="#a9d6fe" d="M 23.5,10.5 C 23.5,13.1667 23.5,15.8333 23.5,18.5C 19.3079,18.1142 15.1412,17.4475 11,16.5C 8.69767,16.6004 6.69767,17.267 5,18.5C 4.33333,15.8333 4.33333,13.1667 5,10.5C 5.49351,12.1341 5.66018,13.8008 5.5,15.5C 9.16667,15.5 12.8333,15.5 16.5,15.5C 16.5,13.8333 16.5,12.1667 16.5,10.5C 18.8333,10.5 21.1667,10.5 23.5,10.5 Z"/></g>
<g><path style="opacity:0.81" fill="#f8de36" d="M 26.5,21.5 C 29.1004,24.7201 29.1004,28.0535 26.5,31.5C 24.5,31.5 22.5,31.5 20.5,31.5C 18.1496,29.7867 17.1496,27.4534 17.5,24.5C 18.2719,23.3065 19.2719,22.3065 20.5,21.5C 22.4513,20.3586 24.4513,20.3586 26.5,21.5 Z"/></g>
<g><path style="opacity:1" fill="#b0dafc" d="M 20.5,21.5 C 19.2719,22.3065 18.2719,23.3065 17.5,24.5C 15.1667,24.5 12.8333,24.5 10.5,24.5C 10.5,23.1667 10.5,21.8333 10.5,20.5C 14.0419,20.1872 17.3752,20.5206 20.5,21.5 Z"/></g>
<g><path style="opacity:1" fill="#59b725" d="M 25.5,24.5 C 26.8009,25.8845 26.8009,27.3845 25.5,29C 19.4396,30.0657 18.1063,28.0657 21.5,23C 23.3524,22.2274 24.6857,22.7274 25.5,24.5 Z"/></g>
<g><path style="opacity:1" fill="#ace095" d="M 25.5,24.5 C 24.7033,27.7094 23.0366,28.2094 20.5,26C 21.4491,25.3828 22.2825,25.5494 23,26.5C 23.7083,25.6195 24.5416,24.9528 25.5,24.5 Z"/></g>
<g><path style="opacity:1" fill="#7acb60" d="M 5.5,25.5 C 8.16667,25.5 10.8333,25.5 13.5,25.5C 13.5,26.5 13.5,27.5 13.5,28.5C 10.8333,28.5 8.16667,28.5 5.5,28.5C 4.16667,27.5 4.16667,26.5 5.5,25.5 Z"/></g>
</svg>
