<?xml version="1.0" encoding="UTF-8"?>
<!DOCTYPE svg PUBLIC "-//W3C//DTD SVG 1.1//EN" "http://www.w3.org/Graphics/SVG/1.1/DTD/svg11.dtd">
<svg xmlns="http://www.w3.org/2000/svg" version="1.1" width="32px" height="32px" style="shape-rendering:geometricPrecision; text-rendering:geometricPrecision; image-rendering:optimizeQuality; fill-rule:evenodd; clip-rule:evenodd" xmlns:xlink="http://www.w3.org/1999/xlink">
<g><path style="opacity:0.757" fill="#c1c7e6" d="M 23.5,8.5 C 22.5489,9.91866 22.2155,11.5853 22.5,13.5C 17.8333,13.5 13.1667,13.5 8.5,13.5C 8.78448,11.5853 8.45115,9.91866 7.5,8.5C 7.5,6.5 7.5,4.5 7.5,2.5C 12.8333,2.5 18.1667,2.5 23.5,2.5C 23.5,4.5 23.5,6.5 23.5,8.5 Z"/></g>
<g><path style="opacity:0.709" fill="#455963" d="M 7.5,8.5 C 8.45115,9.91866 8.78448,11.5853 8.5,13.5C 13.1667,13.5 17.8333,13.5 22.5,13.5C 22.2155,11.5853 22.5489,9.91866 23.5,8.5C 25.9115,8.13673 27.4115,9.13673 28,11.5C 28.4994,17.1569 28.6661,22.8236 28.5,28.5C 19.8333,28.5 11.1667,28.5 2.5,28.5C 2.33391,22.8236 2.50058,17.1569 3,11.5C 3.58854,9.13673 5.08854,8.13673 7.5,8.5 Z"/></g>
<g><path style="opacity:1" fill="#7f88cd" d="M 9.5,7.5 C 11.924,7.19244 14.2573,7.52577 16.5,8.5C 14.7033,10.752 12.3699,11.752 9.5,11.5C 9.5,10.1667 9.5,8.83333 9.5,7.5 Z"/></g>
<g><path style="opacity:1" fill="#818bce" d="M 19.5,7.5 C 20.5862,7.61998 21.2528,8.28665 21.5,9.5C 21.1667,10.1667 20.8333,10.8333 20.5,11.5C 19.5713,10.3112 19.238,8.97782 19.5,7.5 Z"/></g>
<g><path style="opacity:1" fill="#8fa04d" d="M 6.5,16.5 C 12.5,16.5 18.5,16.5 24.5,16.5C 24.5,18.1667 24.5,19.8333 24.5,21.5C 18.5,21.5 12.5,21.5 6.5,21.5C 6.5,19.8333 6.5,18.1667 6.5,16.5 Z"/></g>
<g><path style="opacity:1" fill="#cedd38" d="M 7.5,17.5 C 12.8333,17.5 18.1667,17.5 23.5,17.5C 23.5,18.5 23.5,19.5 23.5,20.5C 18.1667,20.5 12.8333,20.5 7.5,20.5C 7.5,19.5 7.5,18.5 7.5,17.5 Z"/></g>
<g><path style="opacity:1" fill="#abb2b5" d="M 6.5,22.5 C 7.83333,22.5 9.16667,22.5 10.5,22.5C 10.5,23.8333 10.5,25.1667 10.5,26.5C 9.16667,26.5 7.83333,26.5 6.5,26.5C 6.5,25.1667 6.5,23.8333 6.5,22.5 Z"/></g>
<g><path style="opacity:1" fill="#c3c7c9" d="M 11.5,22.5 C 12.5,22.5 13.5,22.5 14.5,22.5C 14.5,23.8333 14.5,25.1667 14.5,26.5C 13.5,26.5 12.5,26.5 11.5,26.5C 11.5,25.1667 11.5,23.8333 11.5,22.5 Z"/></g>
<g><path style="opacity:1" fill="#c3c7c9" d="M 16.5,22.5 C 17.5,22.5 18.5,22.5 19.5,22.5C 19.5,23.8333 19.5,25.1667 19.5,26.5C 18.5,26.5 17.5,26.5 16.5,26.5C 16.5,25.1667 16.5,23.8333 16.5,22.5 Z"/></g>
<g><path style="opacity:1" fill="#ae3651" d="M 20.5,22.5 C 21.8333,22.5 23.1667,22.5 24.5,22.5C 24.5,23.8333 24.5,25.1667 24.5,26.5C 23.1667,26.5 21.8333,26.5 20.5,26.5C 20.5,25.1667 20.5,23.8333 20.5,22.5 Z"/></g>
<g><path style="opacity:1" fill="#fe1442" d="M 21.5,23.5 C 23.337,23.6395 23.6704,24.3061 22.5,25.5C 21.7025,25.0431 21.3691,24.3764 21.5,23.5 Z"/></g>
</svg>
