<?xml version="1.0" encoding="UTF-8"?>
<!DOCTYPE svg PUBLIC "-//W3C//DTD SVG 1.1//EN" "http://www.w3.org/Graphics/SVG/1.1/DTD/svg11.dtd">
<svg xmlns="http://www.w3.org/2000/svg" version="1.1" width="32px" height="32px" style="shape-rendering:geometricPrecision; text-rendering:geometricPrecision; image-rendering:optimizeQuality; fill-rule:evenodd; clip-rule:evenodd" xmlns:xlink="http://www.w3.org/1999/xlink">
<g><path style="opacity:0.939" fill="#4295ff" d="M 12.5,0.5 C 23.2741,-0.124836 29.2741,4.87516 30.5,15.5C 29.8333,24.8333 24.8333,29.8333 15.5,30.5C 6.16667,29.8333 1.16667,24.8333 0.5,15.5C 0.972995,7.50215 4.97299,2.50215 12.5,0.5 Z"/></g>
<g><path style="opacity:1" fill="#e3ecff" d="M 14.5,7.5 C 17.8606,8.20318 18.1939,9.53651 15.5,11.5C 13.3576,10.5629 13.0243,9.22955 14.5,7.5 Z"/></g>
<g><path style="opacity:1" fill="#e8efff" d="M 13.5,13.5 C 14.8333,13.5 16.1667,13.5 17.5,13.5C 17.665,16.8499 17.4983,20.1832 17,23.5C 16,24.8333 15,24.8333 14,23.5C 13.5017,20.1832 13.335,16.8499 13.5,13.5 Z"/></g>
</svg>
