<?xml version="1.0" encoding="UTF-8"?>
<!DOCTYPE svg PUBLIC "-//W3C//DTD SVG 1.1//EN" "http://www.w3.org/Graphics/SVG/1.1/DTD/svg11.dtd">
<svg xmlns="http://www.w3.org/2000/svg" version="1.1" width="32px" height="32px" style="shape-rendering:geometricPrecision; text-rendering:geometricPrecision; image-rendering:optimizeQuality; fill-rule:evenodd; clip-rule:evenodd" xmlns:xlink="http://www.w3.org/1999/xlink">
<g><path style="opacity:0.911" fill="#429bd2" d="M -0.5,-0.5 C 9.5,-0.5 19.5,-0.5 29.5,-0.5C 29.7947,1.73535 29.4614,3.73535 28.5,5.5C 19.0833,5.19452 9.74997,5.52785 0.5,6.5C 0.166667,6.5 -0.166667,6.5 -0.5,6.5C -0.5,4.16667 -0.5,1.83333 -0.5,-0.5 Z"/></g>
<g><path style="opacity:0.974" fill="#ef9c23" d="M 28.5,5.5 C 28.7373,6.79105 28.404,7.79105 27.5,8.5C 19.6775,7.34387 11.6775,7.17721 3.5,8C 0.833333,9.66667 0.833333,11.3333 3.5,13C 11.6775,13.8228 19.6775,13.6561 27.5,12.5C 28.404,13.209 28.7373,14.209 28.5,15.5C 19.5,15.5 10.5,15.5 1.5,15.5C 1.16667,14.5 0.5,13.8333 -0.5,13.5C -0.5,11.5 -0.5,9.5 -0.5,7.5C 0.166667,7.5 0.5,7.16667 0.5,6.5C 9.74997,5.52785 19.0833,5.19452 28.5,5.5 Z"/></g>
<g><path style="opacity:0.983" fill="#f5e9bd" d="M 27.5,8.5 C 27.5,9.83333 27.5,11.1667 27.5,12.5C 19.6775,13.6561 11.6775,13.8228 3.5,13C 0.833333,11.3333 0.833333,9.66667 3.5,8C 11.6775,7.17721 19.6775,7.34387 27.5,8.5 Z"/></g>
<g><path style="opacity:1" fill="#876a9b" d="M 1.5,15.5 C 10.5,15.5 19.5,15.5 28.5,15.5C 29.5,15.5 30.5,15.5 31.5,15.5C 31.5,18.1667 31.5,20.8333 31.5,23.5C 30.8333,23.5 30.1667,23.5 29.5,23.5C 28.5,23.5 27.5,23.5 26.5,23.5C 25.5,23.5 24.5,23.5 23.5,23.5C 17.5,23.5 11.5,23.5 5.5,23.5C 4.5,23.5 3.5,23.5 2.5,23.5C 1.83333,23.5 1.5,23.1667 1.5,22.5C 1.5,20.1667 1.5,17.8333 1.5,15.5 Z"/></g>
<g><path style="opacity:1" fill="#97b1c5" d="M 9.5,17.5 C 14.1667,17.5 18.8333,17.5 23.5,17.5C 23.5,18.8333 23.5,20.1667 23.5,21.5C 19.1539,21.6657 14.8206,21.499 10.5,21C 9.66337,19.9887 9.33003,18.8221 9.5,17.5 Z"/></g>
<g><path style="opacity:0.886" fill="#e54c3b" d="M -0.5,22.5 C 0.166667,22.5 0.833333,22.5 1.5,22.5C 1.5,23.1667 1.83333,23.5 2.5,23.5C 2.5,26.1667 2.5,28.8333 2.5,31.5C 1.5,31.5 0.5,31.5 -0.5,31.5C -0.5,28.5 -0.5,25.5 -0.5,22.5 Z"/></g>
<g><path style="opacity:1" fill="#ee8129" d="M 2.5,23.5 C 3.5,23.5 4.5,23.5 5.5,23.5C 5.5,26.1667 5.5,28.8333 5.5,31.5C 4.5,31.5 3.5,31.5 2.5,31.5C 2.5,28.8333 2.5,26.1667 2.5,23.5 Z"/></g>
<g><path style="opacity:0.91" fill="#e64e3e" d="M 5.5,23.5 C 11.5,23.5 17.5,23.5 23.5,23.5C 23.5,26.1667 23.5,28.8333 23.5,31.5C 17.5,31.5 11.5,31.5 5.5,31.5C 5.5,28.8333 5.5,26.1667 5.5,23.5 Z"/></g>
<g><path style="opacity:1" fill="#ee8129" d="M 23.5,23.5 C 24.5,23.5 25.5,23.5 26.5,23.5C 26.5,26.1667 26.5,28.8333 26.5,31.5C 25.5,31.5 24.5,31.5 23.5,31.5C 23.5,28.8333 23.5,26.1667 23.5,23.5 Z"/></g>
<g><path style="opacity:0.883" fill="#e64b3c" d="M 26.5,23.5 C 27.5,23.5 28.5,23.5 29.5,23.5C 29.5,26.1667 29.5,28.8333 29.5,31.5C 28.5,31.5 27.5,31.5 26.5,31.5C 26.5,28.8333 26.5,26.1667 26.5,23.5 Z"/></g>
<g><path style="opacity:1" fill="#f4e4c0" d="M 10.5,25.5 C 13.6492,25.2114 16.6492,25.7114 19.5,27C 16.7055,28.5569 13.7055,28.8902 10.5,28C 9.40191,27.2303 9.40191,26.397 10.5,25.5 Z"/></g>
</svg>
