<?xml version="1.0" encoding="UTF-8"?>
<!DOCTYPE svg PUBLIC "-//W3C//DTD SVG 1.1//EN" "http://www.w3.org/Graphics/SVG/1.1/DTD/svg11.dtd">
<svg xmlns="http://www.w3.org/2000/svg" version="1.1" width="32px" height="32px" style="shape-rendering:geometricPrecision; text-rendering:geometricPrecision; image-rendering:optimizeQuality; fill-rule:evenodd; clip-rule:evenodd" xmlns:xlink="http://www.w3.org/1999/xlink">
<g><path style="opacity:1" fill="#6abcfa" d="M 16.5,2.5 C 14.1215,4.87768 11.4549,6.87768 8.5,8.5C 6.53368,7.74547 6.20035,6.5788 7.5,5C 10.2065,3.09237 13.2065,2.25903 16.5,2.5 Z"/></g>
<g><path style="opacity:1" fill="#63b3fa" d="M 16.5,2.5 C 17.791,2.26269 18.791,2.59603 19.5,3.5C 17.5,4.83333 15.8333,6.5 14.5,8.5C 13.1932,9.15339 11.8599,9.82006 10.5,10.5C 9.4777,10.1445 8.81103,9.47784 8.5,8.5C 11.4549,6.87768 14.1215,4.87768 16.5,2.5 Z"/></g>
<g><path style="opacity:1" fill="#57affa" d="M 19.5,3.5 C 20.791,3.26269 21.791,3.59603 22.5,4.5C 20.8333,5.5 19.5,6.83333 18.5,8.5C 17.1667,8.5 15.8333,8.5 14.5,8.5C 15.8333,6.5 17.5,4.83333 19.5,3.5 Z"/></g>
<g><path style="opacity:1" fill="#51a8f9" d="M 22.5,4.5 C 23.1667,4.5 23.5,4.83333 23.5,5.5C 22.759,7.35419 21.759,9.02086 20.5,10.5C 19.5,10.1667 18.8333,9.5 18.5,8.5C 19.5,6.83333 20.8333,5.5 22.5,4.5 Z"/></g>
<g><path style="opacity:1" fill="#4aa2fa" d="M 23.5,5.5 C 24.8333,6.16667 25.8333,7.16667 26.5,8.5C 24.5887,9.07501 22.922,10.075 21.5,11.5C 20.8333,11.5 20.5,11.1667 20.5,10.5C 21.759,9.02086 22.759,7.35419 23.5,5.5 Z"/></g>
<g><path style="opacity:1" fill="#4299fa" d="M 26.5,8.5 C 27.3382,8.84171 27.6716,9.50838 27.5,10.5C 25.6675,11.2485 24.0009,12.2485 22.5,13.5C 22.1667,12.8333 21.8333,12.1667 21.5,11.5C 22.922,10.075 24.5887,9.07501 26.5,8.5 Z"/></g>
<g><path style="opacity:1" fill="#66c2fa" d="M 6.5,11.5 C 4.83333,12.5 3.5,13.8333 2.5,15.5C 1.5,15.5 0.5,15.5 -0.5,15.5C -0.5,15.1667 -0.5,14.8333 -0.5,14.5C 1.46283,13.0401 3.29617,11.3734 5,9.5C 5.71719,10.0442 6.21719,10.7109 6.5,11.5 Z"/></g>
<g><path style="opacity:1" fill="#62b5fa" d="M 6.5,11.5 C 7.5,11.8333 8.16667,12.5 8.5,13.5C 6.75405,15.2516 4.75405,16.5849 2.5,17.5C 2.5,16.8333 2.5,16.1667 2.5,15.5C 3.5,13.8333 4.83333,12.5 6.5,11.5 Z"/></g>
<g><path style="opacity:1" fill="#3a95fa" d="M 27.5,10.5 C 28.1098,11.391 28.4431,12.391 28.5,13.5C 26.2279,14.4411 24.2279,15.7745 22.5,17.5C 21.7109,17.2172 21.0442,16.7172 20.5,16C 21.756,15.5831 22.4226,14.7498 22.5,13.5C 24.0009,12.2485 25.6675,11.2485 27.5,10.5 Z"/></g>
<g><path style="opacity:1" fill="#5aaffa" d="M 8.5,13.5 C 9.28913,13.7828 9.9558,14.2828 10.5,15C 9.24402,15.4169 8.57735,16.2502 8.5,17.5C 6.41311,18.5846 5.07978,20.2512 4.5,22.5C 3.46253,21.0697 2.79586,19.403 2.5,17.5C 4.75405,16.5849 6.75405,15.2516 8.5,13.5 Z"/></g>
<g><path style="opacity:1" fill="#328ffa" d="M 28.5,13.5 C 28.5,14.1667 28.5,14.8333 28.5,15.5C 27.5,17.1667 26.1667,18.5 24.5,19.5C 23.5,19.1667 22.8333,18.5 22.5,17.5C 24.2279,15.7745 26.2279,14.4411 28.5,13.5 Z"/></g>
<g><path style="opacity:1" fill="#3093fa" d="M 28.5,15.5 C 29.5,15.5 30.5,15.5 31.5,15.5C 31.5,15.8333 31.5,16.1667 31.5,16.5C 29.5372,17.9599 27.7038,19.6266 26,21.5C 25.2828,20.9558 24.7828,20.2891 24.5,19.5C 26.1667,18.5 27.5,17.1667 28.5,15.5 Z"/></g>
<g><path style="opacity:1" fill="#51a8fa" d="M 8.5,17.5 C 8.83333,18.1667 9.16667,18.8333 9.5,19.5C 7.83333,20.5 6.5,21.8333 5.5,23.5C 4.83333,23.5 4.5,23.1667 4.5,22.5C 5.07978,20.2512 6.41311,18.5846 8.5,17.5 Z"/></g>
<g><path style="opacity:1" fill="#4aa2fa" d="M 9.5,19.5 C 10.5,19.8333 11.1667,20.5 11.5,21.5C 9.83333,22.5 8.5,23.8333 7.5,25.5C 6.5,25.1667 5.83333,24.5 5.5,23.5C 6.5,21.8333 7.83333,20.5 9.5,19.5 Z"/></g>
<g><path style="opacity:1" fill="#338ffa" d="M 21.5,21.5 C 19.5,23.8333 17.5,26.1667 15.5,28.5C 14.5,28.5 13.5,28.5 12.5,28.5C 13.4499,25.8851 15.1165,23.8851 17.5,22.5C 18.4822,21.8592 19.4822,21.1925 20.5,20.5C 21.1067,20.6236 21.44,20.9569 21.5,21.5 Z"/></g>
<g><path style="opacity:1" fill="#429cfa" d="M 11.5,21.5 C 12.1667,21.5 12.5,21.8333 12.5,22.5C 11.5,24.1667 10.1667,25.5 8.5,26.5C 7.83333,26.5 7.5,26.1667 7.5,25.5C 8.5,23.8333 9.83333,22.5 11.5,21.5 Z"/></g>
<g><path style="opacity:1" fill="#3995fa" d="M 12.5,22.5 C 14.1667,22.5 15.8333,22.5 17.5,22.5C 15.1165,23.8851 13.4499,25.8851 12.5,28.5C 11.0048,28.0113 9.67145,27.3446 8.5,26.5C 10.1667,25.5 11.5,24.1667 12.5,22.5 Z"/></g>
<g><path style="opacity:1" fill="#2987fa" d="M 21.5,21.5 C 23.4459,22.2544 24.2793,23.5878 24,25.5C 21.5084,27.4971 18.675,28.4971 15.5,28.5C 17.5,26.1667 19.5,23.8333 21.5,21.5 Z"/></g>
</svg>
